<svg version="1.1" id="Layer_1" xmlns="http://www.w3.org/2000/svg" xmlns:xlink="http://www.w3.org/1999/xlink" x="0px" y="0px"
	 width="100%" viewBox="0 0 1463 660" enable-background="new 0 0 1463 660" xml:space="preserve">
<path fill="#F7F8FC" opacity="1.000000" stroke="none" 
	d="
M317.000000,468.000000 
	C211.333359,468.000000 106.166718,468.000000 1.000057,468.000000 
	C1.000038,312.333405 1.000038,156.666794 1.000019,1.000140 
	C174.999893,1.000093 348.999786,1.000093 522.999756,1.000047 
	C522.999878,156.666519 522.999878,312.333038 522.999939,467.999786 
	C454.500000,468.000000 386.000000,468.000000 317.000000,468.000000 
M350.896332,409.883087 
	C344.331268,410.706329 340.327789,414.602295 340.280365,420.213989 
	C340.235107,425.569061 344.334381,430.644592 350.169006,430.776367 
	C365.991882,431.133789 381.834076,431.159271 397.655823,430.781647 
	C403.811890,430.634705 407.682983,425.451233 407.307587,419.661346 
	C406.922028,413.714569 403.249969,410.185822 396.855774,409.907501 
	C392.902435,409.735413 388.935486,409.875580 384.745483,409.875580 
	C384.745483,313.777191 384.745483,218.205383 384.745483,122.451401 
	C389.096619,122.451401 393.163849,122.451401 397.503723,122.451401 
	C397.503723,127.081451 397.473602,131.401413 397.509491,135.720840 
	C397.607697,147.545273 397.530212,159.376587 397.943390,171.190460 
	C398.122498,176.312271 402.514862,180.001404 407.480072,180.291428 
	C412.159760,180.564804 416.688538,177.454712 417.947083,172.769791 
	C418.541229,170.558167 418.797089,168.191788 418.800598,165.894897 
	C418.855804,129.562622 418.856903,93.230194 418.816925,56.897873 
	C418.814758,54.928318 418.555939,52.902023 418.046814,51.001179 
	C416.738495,46.116623 411.884155,42.654385 407.305756,43.114979 
	C402.375397,43.610973 398.349701,47.362606 397.861786,52.461655 
	C397.466492,56.592533 397.527222,60.773811 397.513489,64.933159 
	C397.474121,76.874046 397.499603,88.815155 397.499603,100.881577 
	C392.935425,100.881577 388.855225,100.881577 384.135773,100.881577 
	C384.135773,94.143593 384.394592,87.666008 384.042999,81.221718 
	C383.816010,77.061295 381.126587,73.593529 377.058411,73.282532 
	C373.588287,73.017265 369.050568,73.763031 366.669617,75.920540 
	C364.379395,77.995819 363.678101,82.395027 363.307556,85.882446 
	C362.774048,90.904060 363.171295,96.024559 363.171295,100.898666 
	C294.668793,100.898666 226.901352,100.898666 158.848480,100.898666 
	C158.848480,95.339706 158.949493,90.036201 158.823120,84.738129 
	C158.662643,78.009560 155.157425,73.535797 149.760376,72.863876 
	C142.625168,71.975555 137.866241,76.101524 137.545609,83.823647 
	C137.312607,89.435188 137.500092,95.064178 137.500092,100.917358 
	C133.031906,100.917358 128.951172,100.917358 124.490913,100.917358 
	C124.490913,94.553879 124.527473,88.426559 124.482620,82.299828 
	C124.409462,72.307671 124.506630,62.306480 124.085457,52.327946 
	C123.873550,47.307545 119.434944,43.495869 114.557861,43.097717 
	C110.157990,42.738522 105.323647,46.071533 104.029076,50.652313 
	C103.450302,52.700260 103.190346,54.905018 103.187637,57.039120 
	C103.141739,93.204781 103.142525,129.370544 103.199173,165.536179 
	C103.203026,167.999329 103.398117,170.558334 104.079239,172.905945 
	C105.992012,179.498672 113.347809,182.070709 119.333321,178.665558 
	C124.016312,176.001434 124.476845,171.677719 124.482826,167.076920 
	C124.502090,152.268677 124.489990,137.460403 124.489990,122.432510 
	C128.940186,122.432510 133.023926,122.432510 137.210510,122.432510 
	C137.210510,218.289749 137.210510,313.861053 137.210510,409.850677 
	C133.097839,409.850677 129.291916,409.730865 125.496231,409.876984 
	C118.773628,410.135803 114.995293,413.681213 114.674149,419.803955 
	C114.370369,425.595581 118.284927,430.665527 124.481056,430.801666 
	C140.303741,431.149323 156.145584,431.137238 171.967194,430.752716 
	C177.724030,430.612823 181.838028,425.361694 181.705811,420.075287 
	C181.561020,414.285065 177.289001,410.151123 170.954727,409.904053 
	C167.018448,409.750519 163.071289,409.875549 159.155670,409.875549 
	C159.155670,313.659515 159.155670,218.087540 159.155670,122.410812 
	C227.225204,122.410812 294.975250,122.410812 362.919037,122.410812 
	C362.919037,218.239349 362.919037,313.812408 362.919037,409.837921 
	C359.061493,409.837921 355.433899,409.837921 350.896332,409.883087 
M87.422577,43.019722 
	C79.908569,44.020687 76.699196,47.363575 76.690697,54.735321 
	C76.646729,92.873039 76.657257,131.010910 76.750916,169.148468 
	C76.755989,171.216354 77.290436,173.492462 78.261269,175.306137 
	C80.485435,179.461288 85.757019,181.293991 90.353867,179.942032 
	C95.195992,178.517944 97.879532,174.509140 97.882957,168.345657 
	C97.903885,130.707489 97.899216,93.069321 97.872902,55.431168 
	C97.867767,48.082886 95.413025,45.018723 87.422577,43.019722 
M445.305084,71.500183 
	C445.307892,66.174545 445.449036,60.843773 445.251465,55.525578 
	C445.161316,53.099533 444.906006,50.444267 443.843048,48.338509 
	C441.601959,43.898933 436.614960,42.114399 431.935822,43.466717 
	C426.940125,44.910530 424.130981,48.847282 424.122864,54.821926 
	C424.084534,83.114410 424.101715,111.406982 424.100555,139.699524 
	C424.100159,149.518738 424.015320,159.339066 424.136536,169.156799 
	C424.219910,175.910767 428.689240,180.399338 434.914551,180.338715 
	C441.314697,180.276413 445.290344,175.787811 445.297485,168.362320 
	C445.328247,136.408295 445.308533,104.454224 445.305084,71.500183 
M71.164009,124.500053 
	C71.164009,120.003677 71.164772,115.507309 71.163872,111.010933 
	C71.161331,98.354454 71.300674,85.695786 71.106094,73.042252 
	C70.971596,64.295464 63.727459,59.151329 56.372185,62.355888 
	C51.701080,64.391006 49.982262,68.322868 49.996647,73.225212 
	C50.023834,82.488976 50.004501,91.752869 50.004501,101.146683 
	C41.026955,101.146683 32.705723,101.014450 24.392946,101.221581 
	C21.647413,101.289986 18.615358,101.653351 16.257736,102.905243 
	C12.062654,105.132843 10.308185,109.071960 11.400537,113.873215 
	C12.524496,118.813400 15.677716,121.879082 20.774101,121.997482 
	C30.377979,122.220604 39.990726,122.061874 50.004997,122.061874 
	C50.004997,131.767960 49.953316,140.887329 50.021637,150.005829 
	C50.074619,157.077026 54.496780,162.052078 60.551933,162.054306 
	C66.608879,162.056534 71.016159,157.136765 71.115417,149.979706 
	C71.228584,141.821167 71.155914,133.660049 71.164009,124.500053 
M450.820618,145.428284 
	C450.871429,147.758560 450.745911,150.109085 451.010376,152.414841 
	C451.534546,156.984009 454.182373,160.073334 458.450836,161.563324 
	C462.497986,162.976059 466.443420,161.766693 468.822723,158.615417 
	C470.658600,156.183868 471.723724,152.649734 471.856506,149.551208 
	C472.244598,140.493942 471.994476,131.409348 471.994476,122.135864 
	C481.887848,122.135864 491.034760,122.174500 500.181091,122.120041 
	C504.964142,122.091560 508.493713,119.980949 510.183838,115.364532 
	C512.982117,107.721542 507.845215,101.314354 498.663879,101.174370 
	C489.900116,101.040749 481.132751,101.145554 471.993835,101.145554 
	C471.993835,99.029640 471.993622,97.396996 471.993866,95.764359 
	C471.995087,87.936462 472.131195,80.105507 471.954102,72.281654 
	C471.818146,66.273460 468.554596,62.690926 462.801727,61.600330 
	C458.416168,60.768932 453.466614,63.473808 451.798096,68.140923 
	C450.984497,70.416733 450.878784,73.032890 450.871796,75.496170 
	C450.806610,98.480034 450.832489,121.464165 450.820618,145.428284 
z"/>
<path fill="#030305" opacity="1.000000" stroke="none" 
	d="
M351.351318,409.860504 
	C355.433899,409.837921 359.061493,409.837921 362.919037,409.837921 
	C362.919037,313.812408 362.919037,218.239349 362.919037,122.410812 
	C294.975250,122.410812 227.225204,122.410812 159.155670,122.410812 
	C159.155670,218.087540 159.155670,313.659515 159.155670,409.875549 
	C163.071289,409.875549 167.018448,409.750519 170.954727,409.904053 
	C177.289001,410.151123 181.561020,414.285065 181.705811,420.075287 
	C181.838028,425.361694 177.724030,430.612823 171.967194,430.752716 
	C156.145584,431.137238 140.303741,431.149323 124.481056,430.801666 
	C118.284927,430.665527 114.370369,425.595581 114.674149,419.803955 
	C114.995293,413.681213 118.773628,410.135803 125.496231,409.876984 
	C129.291916,409.730865 133.097839,409.850677 137.210510,409.850677 
	C137.210510,313.861053 137.210510,218.289749 137.210510,122.432510 
	C133.023926,122.432510 128.940186,122.432510 124.489990,122.432510 
	C124.489990,137.460403 124.502090,152.268677 124.482826,167.076920 
	C124.476845,171.677719 124.016312,176.001434 119.333321,178.665558 
	C113.347809,182.070709 105.992012,179.498672 104.079239,172.905945 
	C103.398117,170.558334 103.203026,167.999329 103.199173,165.536179 
	C103.142525,129.370544 103.141739,93.204781 103.187637,57.039120 
	C103.190346,54.905018 103.450302,52.700260 104.029076,50.652313 
	C105.323647,46.071533 110.157990,42.738522 114.557861,43.097717 
	C119.434944,43.495869 123.873550,47.307545 124.085457,52.327946 
	C124.506630,62.306480 124.409462,72.307671 124.482620,82.299828 
	C124.527473,88.426559 124.490913,94.553879 124.490913,100.917358 
	C128.951172,100.917358 133.031906,100.917358 137.500092,100.917358 
	C137.500092,95.064178 137.312607,89.435188 137.545609,83.823647 
	C137.866241,76.101524 142.625168,71.975555 149.760376,72.863876 
	C155.157425,73.535797 158.662643,78.009560 158.823120,84.738129 
	C158.949493,90.036201 158.848480,95.339706 158.848480,100.898666 
	C226.901352,100.898666 294.668793,100.898666 363.171295,100.898666 
	C363.171295,96.024559 362.774048,90.904060 363.307556,85.882446 
	C363.678101,82.395027 364.379395,77.995819 366.669617,75.920540 
	C369.050568,73.763031 373.588287,73.017265 377.058411,73.282532 
	C381.126587,73.593529 383.816010,77.061295 384.042999,81.221718 
	C384.394592,87.666008 384.135773,94.143593 384.135773,100.881577 
	C388.855225,100.881577 392.935425,100.881577 397.499603,100.881577 
	C397.499603,88.815155 397.474121,76.874046 397.513489,64.933159 
	C397.527222,60.773811 397.466492,56.592533 397.861786,52.461655 
	C398.349701,47.362606 402.375397,43.610973 407.305756,43.114979 
	C411.884155,42.654385 416.738495,46.116623 418.046814,51.001179 
	C418.555939,52.902023 418.814758,54.928318 418.816925,56.897873 
	C418.856903,93.230194 418.855804,129.562622 418.800598,165.894897 
	C418.797089,168.191788 418.541229,170.558167 417.947083,172.769791 
	C416.688538,177.454712 412.159760,180.564804 407.480072,180.291428 
	C402.514862,180.001404 398.122498,176.312271 397.943390,171.190460 
	C397.530212,159.376587 397.607697,147.545273 397.509491,135.720840 
	C397.473602,131.401413 397.503723,127.081451 397.503723,122.451401 
	C393.163849,122.451401 389.096619,122.451401 384.745483,122.451401 
	C384.745483,218.205383 384.745483,313.777191 384.745483,409.875580 
	C388.935486,409.875580 392.902435,409.735413 396.855774,409.907501 
	C403.249969,410.185822 406.922028,413.714569 407.307587,419.661346 
	C407.682983,425.451233 403.811890,430.634705 397.655823,430.781647 
	C381.834076,431.159271 365.991882,431.133789 350.169006,430.776367 
	C344.334381,430.644592 340.235107,425.569061 340.280365,420.213989 
	C340.327789,414.602295 344.331268,410.706329 351.351318,409.860504 
z"/>
<path fill="#030303" opacity="1.000000" stroke="none" 
	d="
M87.821281,43.040173 
	C95.413025,45.018723 97.867767,48.082886 97.872902,55.431168 
	C97.899216,93.069321 97.903885,130.707489 97.882957,168.345657 
	C97.879532,174.509140 95.195992,178.517944 90.353867,179.942032 
	C85.757019,181.293991 80.485435,179.461288 78.261269,175.306137 
	C77.290436,173.492462 76.755989,171.216354 76.750916,169.148468 
	C76.657257,131.010910 76.646729,92.873039 76.690697,54.735321 
	C76.699196,47.363575 79.908569,44.020687 87.821281,43.040173 
z"/>
<path fill="#030304" opacity="1.000000" stroke="none" 
	d="
M445.306152,72.000175 
	C445.308533,104.454224 445.328247,136.408295 445.297485,168.362320 
	C445.290344,175.787811 441.314697,180.276413 434.914551,180.338715 
	C428.689240,180.399338 424.219910,175.910767 424.136536,169.156799 
	C424.015320,159.339066 424.100159,149.518738 424.100555,139.699524 
	C424.101715,111.406982 424.084534,83.114410 424.122864,54.821926 
	C424.130981,48.847282 426.940125,44.910530 431.935822,43.466717 
	C436.614960,42.114399 441.601959,43.898933 443.843048,48.338509 
	C444.906006,50.444267 445.161316,53.099533 445.251465,55.525578 
	C445.449036,60.843773 445.307892,66.174545 445.306152,72.000175 
z"/>
<path fill="#030304" opacity="1.000000" stroke="none" 
	d="
M71.164009,125.000061 
	C71.155914,133.660049 71.228584,141.821167 71.115417,149.979706 
	C71.016159,157.136765 66.608879,162.056534 60.551933,162.054306 
	C54.496780,162.052078 50.074619,157.077026 50.021637,150.005829 
	C49.953316,140.887329 50.004997,131.767960 50.004997,122.061874 
	C39.990726,122.061874 30.377979,122.220604 20.774101,121.997482 
	C15.677716,121.879082 12.524496,118.813400 11.400537,113.873215 
	C10.308185,109.071960 12.062654,105.132843 16.257736,102.905243 
	C18.615358,101.653351 21.647413,101.289986 24.392946,101.221581 
	C32.705723,101.014450 41.026955,101.146683 50.004501,101.146683 
	C50.004501,91.752869 50.023834,82.488976 49.996647,73.225212 
	C49.982262,68.322868 51.701080,64.391006 56.372185,62.355888 
	C63.727459,59.151329 70.971596,64.295464 71.106094,73.042252 
	C71.300674,85.695786 71.161331,98.354454 71.163872,111.010933 
	C71.164772,115.507309 71.164009,120.003677 71.164009,125.000061 
z"/>
<path fill="#030305" opacity="1.000000" stroke="none" 
	d="
M450.826294,144.938248 
	C450.832489,121.464165 450.806610,98.480034 450.871796,75.496170 
	C450.878784,73.032890 450.984497,70.416733 451.798096,68.140923 
	C453.466614,63.473808 458.416168,60.768932 462.801727,61.600330 
	C468.554596,62.690926 471.818146,66.273460 471.954102,72.281654 
	C472.131195,80.105507 471.995087,87.936462 471.993866,95.764359 
	C471.993622,97.396996 471.993835,99.029640 471.993835,101.145554 
	C481.132751,101.145554 489.900116,101.040749 498.663879,101.174370 
	C507.845215,101.314354 512.982117,107.721542 510.183838,115.364532 
	C508.493713,119.980949 504.964142,122.091560 500.181091,122.120041 
	C491.034760,122.174500 481.887848,122.135864 471.994476,122.135864 
	C471.994476,131.409348 472.244598,140.493942 471.856506,149.551208 
	C471.723724,152.649734 470.658600,156.183868 468.822723,158.615417 
	C466.443420,161.766693 462.497986,162.976059 458.450836,161.563324 
	C454.182373,160.073334 451.534546,156.984009 451.010376,152.414841 
	C450.745911,150.109085 450.871429,147.758560 450.826294,144.938248 
z"/>
</svg>